<?xml version="1.0" standalone="no"?>
<!DOCTYPE svg PUBLIC "-//W3C//DTD SVG 20010904//EN"
 "http://www.w3.org/TR/2001/REC-SVG-20010904/DTD/svg10.dtd">
<svg version="1.0" xmlns="http://www.w3.org/2000/svg"
 width="500.000000pt" height="500.000000pt" viewBox="0 0 500.000000 500.000000"
 preserveAspectRatio="xMidYMid meet">
<metadata>
Created by potrace 1.11, written by Peter Selinger 2001-2013
</metadata>
<g transform="translate(0.000000,500.000000) scale(0.100000,-0.100000)"
fill="#000000" stroke="none">
<path d="M2203 4954 c-227 -27 -473 -95 -691 -190 -286 -125 -533 -294 -758
-518 -397 -398 -644 -907 -709 -1462 -17 -150 -20 -397 -4 -545 55 -545 300
-1070 684 -1468 401 -416 946 -681 1523 -742 169 -17 516 -7 671 21 1102 196
1928 1071 2051 2175 13 116 13 424 0 540 -34 301 -129 613 -266 875 -385 731
-1093 1218 -1913 1316 -145 17 -440 16 -588 -2z m630 -174 c560 -83 1056 -356
1425 -785 452 -527 644 -1227 521 -1908 -85 -473 -324 -918 -671 -1252 -704
-678 -1738 -842 -2613 -415 -661 323 -1122 929 -1262 1660 -31 164 -43 491
-24 661 54 477 240 899 558 1269 198 231 500 459 770 581 196 89 459 166 663
193 165 22 468 20 633 -4z"/>
<path d="M2254 4492 c-12 -1 -32 -14 -45 -28 l-24 -26 -5 -884 -5 -884 -113
538 c-270 1278 -260 1233 -283 1258 -38 41 -132 21 -144 -29 -4 -13 84 -438
201 -972 113 -523 206 -961 206 -975 -1 -14 -94 -448 -207 -964 -166 -753
-205 -944 -196 -962 14 -32 66 -57 101 -49 53 12 61 33 117 298 87 418 130
621 228 1087 l93 445 4 -887 3 -888 27 -27 c36 -35 87 -37 123 -3 l25 23 0
914 0 913 190 0 190 0 0 -810 c0 -803 0 -810 21 -867 51 -136 231 -237 384
-217 151 20 268 116 309 254 37 123 10 190 -77 190 -58 0 -78 -23 -89 -102
-13 -97 -73 -160 -165 -174 -61 -9 -138 30 -175 88 l-28 42 0 798 0 797 251 3
251 3 24 28 c31 36 31 78 0 114 l-24 28 -251 3 -251 3 0 795 c0 778 0 796 20
834 44 86 156 123 245 80 61 -29 94 -80 105 -161 11 -75 32 -99 90 -99 105 0
120 153 29 289 -88 132 -255 191 -410 145 -99 -29 -184 -95 -227 -178 l-27
-51 -3 -832 -2 -833 -190 0 -190 0 0 943 c0 887 -1 945 -18 960 -23 21 -62 34
-88 29z"/>
</g>
</svg>
